<?xml version="1.0" encoding="UTF-8"?><svg id="Layer_2" xmlns="http://www.w3.org/2000/svg" viewBox="0 0 826.4517 507.8342"><g id="Components"><g id="_1c231f73-1df7-4cf0-b439-e1072bc39394_1"><path d="M9.2764,374.7932h-.3477c-.0781-2.0088-.832-3.7285-2.2612-5.1602-1.4312-1.4287-3.1509-2.1445-5.1602-2.1445H0v-1.1602h9.2764v8.4648ZM9.2764,439.0305v8.4648H0v-1.1592h1.5073c2.0093,0,3.729-.7139,5.1602-2.1455,1.4292-1.4297,2.1831-3.1484,2.2612-5.1602h.3477ZM19.7119,366.3283v81.167h-10.7832v-81.167h10.7832ZM19.3643,374.7932v-8.4648h9.2764v1.1602h-1.5078c-2.0107,0-3.73.7158-5.1597,2.1445-1.4312,1.4316-2.1851,3.1514-2.2612,5.1602h-.3477ZM19.3643,439.0305h.3477c.0762,2.0117.8301,3.7305,2.2612,5.1602,1.4297,1.4316,3.1489,2.1455,5.1597,2.1455h1.5078v1.1592h-9.2764v-8.4648Z" style="fill:#fff;"/><path d="M69.3975,440.9015v6.5938h-7.708v-.9287h1.7646c1.5469,0,2.8789-.5566,3.9932-1.6719,1.1143-1.1143,1.6714-2.4443,1.6714-3.9932h.2788ZM69.1187,381.0978l7.1504,8.1719.0928,58.2256h-7.2432v-54.7891c0-3.2812-.3105-7.1504-.9287-11.6084h.9287ZM69.1187,381.0978l55.7178,57.2041.9287,10.4932-55.7178-57.1104-.9287-10.5869ZM76.3618,440.9015c0,1.5488.5571,2.8789,1.6719,3.9932,1.1143,1.1152,2.4448,1.6719,3.9932,1.6719h1.7642v.9287h-7.7075v-6.5938h.2783ZM111,382.4914h7.7075v6.5928h-.1855c-.0625-1.6084-.6357-2.9551-1.7183-4.0391-1.084-1.083-2.4302-1.625-4.0396-1.625h-1.7642v-.9287ZM125.6724,382.4914v54.418c0,2.1045.0767,4.0713.2319,5.8965.1538,1.8271.3862,3.8232.6968,5.9893h-.8359l-7.2432-8.2646v-58.0391h7.1504ZM133.1011,382.4914v.9287h-1.6714c-1.5483,0-2.8789.542-3.9932,1.625-1.1143,1.084-1.7031,2.4307-1.7642,4.0391h-.2788v-6.5928h7.7075Z" style="fill:#fff;"/><path d="M166.7183,389.2697h-.2788c-.0625-1.6084-.666-2.9854-1.811-4.1318-1.146-1.1445-2.5229-1.7178-4.1323-1.7178h-1.207v-.9287h7.4292v6.7783ZM166.7183,440.716v6.7793h-7.4292v-.9287h1.207c1.6094,0,2.9863-.5713,4.1323-1.7178,1.145-1.1445,1.7485-2.5215,1.811-4.1328h.2788ZM175.0757,382.4914v65.0039h-8.6362v-65.0039h8.6362ZM174.7974,389.2697v-6.7783h7.4287v.9287h-1.207c-1.6108,0-2.9878.5732-4.1323,1.7178-1.1465,1.1465-1.75,2.5234-1.811,4.1318h-.2783ZM199.9629,444.2453l.7432,3.25h-25.9087v-3.25h25.1655ZM205.999,431.1515l-5.0146,16.3438h-16.3437l3.3433-3.25c3.2183,0,5.9111-.541,8.0791-1.625,2.166-1.083,3.9609-2.6152,5.3857-4.5967,1.4233-1.9805,2.6309-4.2725,3.6216-6.8721h.9287Z" style="fill:#fff;"/><path d="M239.8931,440.716c-.4336,1.2393-.4961,2.291-.1855,3.1572.3091.8682.8198,1.5322,1.5322,1.9971.7109.4639,1.4395.6963,2.1821.6963h.8359v.9287h-19.0371v-.9287h.8359c1.4233,0,2.8931-.4482,4.4106-1.3467,1.5166-.8965,2.77-2.3984,3.7612-4.5039h5.6646ZM259.8584,381.0051l.7432,8.0791-23.2158,58.1328h-6.0361l23.8657-55.8105c.061-.124.2935-.6045.6968-1.4395.4019-.8359.8354-1.8418,1.2998-3.0186.4644-1.1748.8823-2.3213,1.2539-3.4355.3711-1.1143.5571-1.9502.5571-2.5078h.8354ZM271.8379,423.258v3.1572h-28.416v-3.1572h28.416ZM259.8584,381.0051l28.5093,65.9326h-10.8652l-20.7085-54.0459,3.0645-11.8867ZM275.0884,440.716h10.4932c.9897,2.1055,2.2432,3.6074,3.7612,4.5039,1.5161.8984,2.9858,1.3467,4.4106,1.3467h.7432v.9287h-23.7729v-.9287h.8359c1.2373,0,2.3213-.5107,3.25-1.5322s1.0215-2.4609.2788-4.3184Z" style="fill:#fff;"/><path d="M323.0044,440.9015v6.5938h-7.708v-.9287h1.7646c1.5469,0,2.8789-.5566,3.9932-1.6719,1.1143-1.1143,1.6714-2.4443,1.6714-3.9932h.2788ZM322.7256,381.0978l7.1504,8.1719.0928,58.2256h-7.2432v-54.7891c0-3.2812-.3105-7.1504-.9287-11.6084h.9287ZM322.7256,381.0978l55.7178,57.2041.9287,10.4932-55.7178-57.1104-.9287-10.5869ZM329.9688,440.9015c0,1.5488.5571,2.8789,1.6719,3.9932,1.1143,1.1152,2.4448,1.6719,3.9932,1.6719h1.7642v.9287h-7.7075v-6.5938h.2783ZM364.6069,382.4914h7.7075v6.5928h-.1855c-.0625-1.6084-.6357-2.9551-1.7183-4.0391-1.084-1.083-2.4302-1.625-4.0396-1.625h-1.7642v-.9287ZM379.2793,382.4914v54.418c0,2.1045.0767,4.0713.2319,5.8965.1538,1.8271.3862,3.8232.6968,5.9893h-.8359l-7.2432-8.2646v-58.0391h7.1504ZM386.708,382.4914v.9287h-1.6714c-1.5483,0-2.8789.542-3.9932,1.625-1.1143,1.084-1.7031,2.4307-1.7642,4.0391h-.2788v-6.5928h7.7075Z" style="fill:#fff;"/><path d="M420.3257,389.2697h-.2783c0-1.6084-.5889-2.9854-1.7646-4.1318-1.1768-1.1445-2.5693-1.7178-4.1787-1.7178h-1.1143l-.0928-.9287h7.4287v6.7783ZM420.3257,440.716v6.7793h-7.4287v-.9287h1.207c1.6094,0,2.9863-.5713,4.1318-1.7178,1.1455-1.1445,1.749-2.5215,1.8115-4.1328h.2783ZM428.6841,382.4914v65.0039h-8.6367v-65.0039h8.6367ZM445.1206,382.4914c6.8721,0,12.8457,1.332,17.9219,3.9932,5.0762,2.6621,9.0391,6.4395,11.8867,11.3291,2.8467,4.8916,4.2715,10.6182,4.2715,17.1797s-1.4248,12.2734-4.2715,17.1328c-2.8477,4.8613-6.8105,8.6367-11.8867,11.3301-5.0762,2.6924-11.0498,4.0391-17.9219,4.0391h-20.6162l-.0928-3.1572h20.3369c5.0146,0,9.3799-1.207,13.0938-3.6221,3.7148-2.4141,6.5937-5.8184,8.6367-10.2148,2.043-4.3945,3.0645-9.5645,3.0645-15.5078s-1.0215-11.1113-3.0645-15.5078c-2.043-4.3955-4.9219-7.8008-8.6367-10.2158-3.7139-2.4141-8.0791-3.6211-13.0938-3.6211h-21.2656v-3.1572h21.6377Z" style="fill:#fff;"/><path d="M536.3599,362.5402c.7715.3105,1.9512.6201,3.5361.9277,1.584.3105,3.3428.5801,5.2764.8125,1.9316.2314,3.71.3477,5.334.3477l-14.1465,1.2754v-3.3633ZM605.8149,364.6281v3.9424h-69.4551v-3.9424h69.4551ZM545.9839,368.2228v.3477c-2.4746.0771-4.5039.9092-6.0879,2.4932-1.585,1.585-2.377,3.6143-2.377,6.0869v1.7393l-1.1592.1162v-10.7832h9.624ZM566.0435,437.4455v8.4648h-9.2764v-1.1592h1.5078c2.0088,0,3.7285-.7139,5.1602-2.1455,1.4287-1.4297,2.1826-3.1484,2.2607-5.1602h.3477ZM576.479,365.092v80.8184h-10.7832v-80.8184h10.7832ZM576.1313,437.4455h.3477c.0762,2.0117.8301,3.7305,2.2617,5.1602,1.4287,1.4316,3.1484,2.1455,5.1592,2.1455h1.5078v1.1592h-9.2764v-8.4648ZM605.8149,362.5402v3.3633l-14.1455-1.2754c1.6992,0,3.4961-.1162,5.3916-.3477,1.8936-.2324,3.6523-.502,5.2754-.8125,1.624-.3076,2.7832-.6172,3.4785-.9277ZM605.8149,368.2228v10.7832l-1.1592-.1162v-1.7393c0-2.4727-.7939-4.502-2.377-6.0869-1.585-1.584-3.6143-2.416-6.0879-2.4932v-.3477h9.624Z" style="fill:#fff;"/><path d="M643.4194,387.6848h-.2793c-.0625-1.6084-.666-2.9854-1.8105-4.1318-1.1465-1.1445-2.5234-1.7178-4.1328-1.7178h-1.207v-.9287h7.4297v6.7783ZM643.4194,439.131v6.7793h-7.4297v-.9287h1.207c1.6094,0,2.9863-.5713,4.1328-1.7178,1.1445-1.1445,1.748-2.5215,1.8105-4.1328h.2793ZM651.7769,380.9064v65.0039h-8.6367v-65.0039h8.6367ZM651.4985,387.6848v-6.7783h7.4287v.9287h-1.207c-1.6113,0-2.9883.5732-4.1328,1.7178-1.1465,1.1465-1.75,2.5234-1.8105,4.1318h-.2783ZM651.4985,439.131h.2783c.0605,1.6113.6641,2.9883,1.8105,4.1328,1.1445,1.1465,2.5215,1.7178,4.1328,1.7178h1.207v.9287h-7.4287v-6.7793Z" style="fill:#fff;"/><path d="M694.8647,387.6848h-.2793c0-1.6084-.5889-2.9854-1.7637-4.1318-1.1768-1.1445-2.5703-1.7178-4.1797-1.7178h-1.1143l-.0928-.9287h7.4297v6.7783ZM694.8647,439.131v6.7793h-7.4297v-.9287h1.207c1.6094,0,2.9863-.5713,4.1328-1.7178,1.1445-1.1445,1.748-2.5215,1.8105-4.1328h.2793ZM703.2222,380.9064v65.0039h-8.6367v-65.0039h8.6367ZM719.6587,380.9064c6.8721,0,12.8457,1.332,17.9229,3.9932,5.0752,2.6621,9.0381,6.4395,11.8857,11.3291,2.8477,4.8916,4.2725,10.6182,4.2725,17.1797s-1.4248,12.2734-4.2725,17.1328c-2.8477,4.8613-6.8105,8.6367-11.8857,11.3301-5.0771,2.6924-11.0508,4.0391-17.9229,4.0391h-20.6152l-.0928-3.1572h20.3369c5.0146,0,9.3789-1.207,13.0937-3.6221,3.7139-2.4141,6.5928-5.8184,8.6357-10.2148,2.043-4.3945,3.0645-9.5645,3.0645-15.5078s-1.0215-11.1113-3.0645-15.5078c-2.043-4.3955-4.9219-7.8008-8.6357-10.2158-3.7148-2.4141-8.0791-3.6211-13.0937-3.6211h-21.2656v-3.1572h21.6367Z" style="fill:#fff;"/><path d="M787.1704,387.6848h-.2783c0-1.6084-.5889-2.9854-1.7646-4.1318-1.1768-1.1445-2.5693-1.7178-4.1787-1.7178h-1.1143l-.0928-.9287h7.4287v6.7783ZM787.1704,439.131v6.7793h-7.4287v-.9287h1.207c1.6094,0,2.9863-.5713,4.1318-1.7178,1.1455-1.1445,1.749-2.5215,1.8115-4.1328h.2783ZM795.5278,380.9064v65.0039h-8.6357v-65.0039h8.6357ZM820.7866,380.9064v3.25h-25.5371v-3.25h25.5371ZM816.6079,412.2941v3.1572h-21.3584v-3.1572h21.3584ZM820.4155,442.6603l.7432,3.25h-25.9092v-3.25h25.166ZM826.4517,429.5666l-5.0146,16.3438h-16.3437l3.3428-3.25c3.2188,0,5.9111-.541,8.0791-1.625,2.166-1.083,3.9609-2.6152,5.3857-4.5967,1.4238-1.9805,2.6309-4.2725,3.6221-6.8721h.9287ZM820.7866,379.2346v2.6934l-11.3291-1.0215c1.3613,0,2.8008-.0928,4.3184-.2783,1.5156-.1865,2.9248-.4023,4.2246-.6504,1.3008-.2471,2.2295-.4951,2.7861-.7432ZM816.6079,405.4221v7.0576h-6.5v-.1855c1.6084-.0615,2.9395-.6504,3.9932-1.7646,1.0518-1.1143,1.5781-2.4453,1.5781-3.9932v-1.1143h.9287ZM816.6079,415.2658v7.0576h-.9287v-1.207c0-1.5469-.5264-2.8789-1.5781-3.9932-1.0537-1.1152-2.3848-1.6719-3.9932-1.6719v-.1855h6.5ZM820.7866,383.8781v8.543h-.9287v-1.4854c0-1.9189-.6348-3.5293-1.9033-4.8291-1.2695-1.2998-2.8945-1.9805-4.875-2.043v-.1855h7.707Z" style="fill:#fff;"/><path d="M237.3521,483.5432h-.1143c-.0254-.6562-.2715-1.2187-.7383-1.6865-.4678-.4668-1.0303-.7002-1.6865-.7002h-.4932v-.3789h3.0322v2.7656ZM237.3521,504.5373v2.7666h-3.0322v-.3789h.4932c.6562,0,1.2188-.2334,1.6865-.7012.4668-.4668.7129-1.0293.7383-1.6865h.1143ZM240.7622,480.7775v26.5264h-3.5244v-26.5264h3.5244ZM255.5415,493.5099v1.2881h-15.1582v-1.2881h15.1582ZM240.6489,483.5432v-2.7656h3.0312v.3789h-.4922c-.6572,0-1.2197.2334-1.6865.7002-.4678.4678-.7139,1.0303-.7393,1.6865h-.1133ZM240.6489,504.5373h.1133c.0254.6572.2715,1.2197.7393,1.6865.4668.4678,1.0293.7012,1.6865.7012h.4922v.3789h-3.0312v-2.7666ZM255.314,483.5432h-.1133c0-.6562-.2402-1.2187-.7207-1.6865-.4795-.4668-1.0479-.7002-1.7051-.7002h-.4922v-.3789h3.0312v2.7656ZM255.314,504.5373v2.7666h-3.0312v-.3789h.4922c.6572,0,1.2256-.2334,1.7051-.7012.4805-.4668.7207-1.0293.7207-1.6865h.1133ZM258.7251,480.7775v26.5264h-3.5244v-26.5264h3.5244ZM258.6108,483.5432v-2.7656h3.0322v.3789h-.4932c-.6572,0-1.2187.2334-1.6865.7002-.4678.4678-.7139,1.0303-.7383,1.6865h-.1143ZM258.6108,504.5373h.1143c.0244.6572.2705,1.2197.7383,1.6865.4678.4678,1.0293.7012,1.6865.7012h.4932v.3789h-3.0322v-2.7666Z" style="fill:#ba944b;"/><path d="M302.0776,480.2463c2.8291,0,5.2988.5684,7.4082,1.7051,2.1094,1.1377,3.752,2.7422,4.9268,4.8135,1.1748,2.0713,1.7617,4.4971,1.7617,7.2754s-.5869,5.2051-1.7617,7.2764c-1.1748,2.0713-2.8174,3.6758-4.9268,4.8125-2.1094,1.1367-4.5791,1.7051-7.4082,1.7051-2.7793,0-5.2236-.5684-7.333-1.7051-2.1094-1.1367-3.752-2.7412-4.9268-4.8125-1.1748-2.0713-1.7617-4.4971-1.7617-7.2764s.5869-5.2041,1.7617-7.2754c1.1748-2.0713,2.8174-3.6758,4.9268-4.8135,2.1094-1.1367,4.5537-1.7051,7.333-1.7051ZM302.0776,506.5461c2.0459,0,3.8145-.5176,5.3047-1.5537,1.4912-1.0361,2.6533-2.4883,3.4873-4.3584.833-1.8691,1.25-4.0674,1.25-6.5937s-.417-4.7236-1.25-6.5938c-.834-1.8691-1.9961-3.3213-3.4873-4.3574-1.4902-1.0361-3.2588-1.5537-5.3047-1.5537-1.9961,0-3.7461.5176-5.249,1.5537-1.5029,1.0361-2.6709,2.4883-3.5049,4.3574-.834,1.8701-1.251,4.0684-1.251,6.5938s.417,4.7246,1.251,6.5937c.834,1.8701,2.002,3.3223,3.5049,4.3584,1.5029,1.0361,3.2529,1.5537,5.249,1.5537Z" style="fill:#ba944b;"/><path d="M345.0132,483.5432h-.1143c-.0254-.6562-.2715-1.2187-.7383-1.6865-.4678-.4668-1.0303-.7002-1.6865-.7002h-.4932v-.3789h3.0322v2.7656ZM345.0132,504.5373v2.7666h-3.0322v-.3789h.4932c.6562,0,1.2188-.2334,1.6865-.7012.4668-.4668.7129-1.0293.7383-1.6865h.1143ZM348.4233,480.7775v26.5264h-3.5244v-26.5264h3.5244ZM348.3101,483.5432v-2.7656h3.0312v.3789h-.4922c-.6572,0-1.2197.2334-1.6865.7002-.4678.4678-.7139,1.0303-.7393,1.6865h-.1133ZM358.5796,505.9777l.3027,1.3262h-10.5723v-1.3262h10.2695ZM361.0425,500.634l-2.0459,6.6699h-6.6699l1.3643-1.3262c1.3135,0,2.4121-.2207,3.2969-.6631.8838-.4424,1.6162-1.0674,2.1982-1.876.5801-.8086,1.0732-1.7432,1.4775-2.8047h.3789Z" style="fill:#ba944b;"/><path d="M389.2749,483.5432h-.1143c0-.6562-.2402-1.2187-.7197-1.6865-.4805-.4668-1.0488-.7002-1.7051-.7002h-.4551l-.0381-.3789h3.0322v2.7656ZM389.2749,504.5373v2.7666h-3.0322v-.3789h.4932c.6563,0,1.2188-.2334,1.6865-.7012.4668-.4668.7129-1.0293.7383-1.6865h.1143ZM392.6851,480.7775v26.5264h-3.5244v-26.5264h3.5244ZM399.3931,480.7775c2.8037,0,5.2412.543,7.3135,1.6289,2.0713,1.0869,3.6885,2.6279,4.8506,4.623,1.1621,1.9961,1.7432,4.333,1.7432,7.0107s-.5811,5.0088-1.7432,6.9922c-1.1621,1.9834-2.7793,3.5244-4.8506,4.623-2.0723,1.0986-4.5098,1.6484-7.3135,1.6484h-8.4131l-.0381-1.2881h8.2988c2.0469,0,3.8281-.4932,5.3438-1.4785s2.6904-2.374,3.5244-4.168c.833-1.7939,1.25-3.9033,1.25-6.3291s-.417-4.5342-1.25-6.3281c-.834-1.7939-2.0088-3.1836-3.5244-4.1689-1.5156-.9854-3.2969-1.4775-5.3438-1.4775h-8.6777v-1.2881h8.8301Z" style="fill:#ba944b;"/><path d="M442.1011,483.5432h-.1143c-.0254-.6562-.2715-1.2187-.7383-1.6865-.4678-.4668-1.0303-.7002-1.6865-.7002h-.4932v-.3789h3.0322v2.7656ZM442.1011,504.5373v2.7666h-3.0322v-.3789h.4932c.6562,0,1.2188-.2334,1.6865-.7012.4668-.4668.7129-1.0293.7383-1.6865h.1143ZM445.5112,480.7775v26.5264h-3.5244v-26.5264h3.5244ZM445.3979,483.5432v-2.7656h3.0312v.3789h-.4922c-.6572,0-1.2197.2334-1.6865.7002-.4678.4678-.7139,1.0303-.7393,1.6865h-.1133ZM445.3979,504.5373h.1133c.0254.6572.2715,1.2197.7393,1.6865.4668.4678,1.0293.7012,1.6865.7012h.4922v.3789h-3.0312v-2.7666Z" style="fill:#ba944b;"/><path d="M477.8364,504.6135v2.6904h-3.1455v-.3789h.7197c.6318,0,1.1748-.2275,1.6299-.6826.4551-.4541.6826-.9971.6826-1.6289h.1133ZM477.7231,480.2082l2.918,3.335.0371,23.7607h-2.9551v-22.3584c0-1.3389-.127-2.918-.3789-4.7373h.3789ZM477.7231,480.2082l22.7373,23.3438.3789,4.2822-22.7373-23.3057-.3789-4.3203ZM480.6782,504.6135c0,.6318.2275,1.1748.6826,1.6289.4551.4551.998.6826,1.6289.6826h.7207v.3789h-3.1455v-2.6904h.1133ZM494.814,480.7775h3.1445v2.6904h-.0752c-.0254-.6572-.2598-1.2061-.7012-1.6484-.4424-.4424-.9922-.6631-1.6484-.6631h-.7197v-.3789ZM500.8013,480.7775v22.2061c0,.8594.0312,1.6621.0947,2.4062.0625.7461.1572,1.5605.2842,2.4443h-.3408l-2.9561-3.3721v-23.6846h2.918ZM503.8325,480.7775v.3789h-.6816c-.6318,0-1.1748.2207-1.6299.6631s-.6953.9912-.7197,1.6484h-.1143v-2.6904h3.1455Z" style="fill:#ba944b;"/><path d="M554.8022,496.6935v6.252c-.582.7588-1.4023,1.5166-2.4639,2.2744-1.0605.7578-2.3428,1.3828-3.8457,1.876-1.5039.4922-3.2402.7383-5.2109.7383-2.7285-.0254-5.1348-.6064-7.2188-1.7432-2.085-1.1367-3.708-2.7344-4.8701-4.7939-1.1621-2.0586-1.7432-4.4775-1.7432-7.2568s.5811-5.2041,1.7432-7.2754c1.1621-2.0713,2.7852-3.6758,4.8701-4.8135,2.084-1.1367,4.5156-1.7051,7.2949-1.7051,1.3887,0,2.6777.1084,3.8652.3223,1.1865.2148,2.2607.5059,3.2207.8721s1.8066.7764,2.5391,1.2314l.5303,5.7217h-.3408c-.4043-1.5654-1.0488-2.8477-1.9326-3.8457-.8848-.998-1.9648-1.749-3.2402-2.2549-1.2754-.5049-2.6973-.7578-4.2627-.7578-2.0977,0-3.9229.5176-5.4766,1.5537-1.5537,1.0361-2.7539,2.4951-3.5996,4.377-.8467,1.8818-1.2695,4.0986-1.2695,6.6504,0,2.4766.417,4.6484,1.251,6.5176.833,1.8701,2.002,3.3164,3.5049,4.3389,1.5029,1.0234,3.2783,1.5479,5.3242,1.5732,1.0361,0,2.04-.1387,3.0127-.417.9727-.2773,1.876-.6689,2.71-1.1748.833-.5049,1.5283-1.124,2.084-1.8564l.0381-6.4043c0-1.1377-.6445-1.7061-1.9326-1.7061h-.6064v-.3789h8.4883v.3789h-.5684c-1.3135,0-1.9453.5684-1.8945,1.7061Z" style="fill:#ba944b;"/><path d="M590.688,480.2463c.4297,0,.9219.0254,1.4785.0762.5547.0508,1.1172.1201,1.6855.208.5693.0889,1.0742.1777,1.5166.2656.4414.0889.7637.1836.9658.2842l-.1514,4.5098h-.3408c0-1.2373-.4424-2.2227-1.3262-2.9561-.8848-.7324-1.9961-1.0986-3.335-1.0986-1.415,0-2.5586.4102-3.4297,1.2314-.8721.8213-1.3076,1.7871-1.3076,2.8984-.0254.5566.1201,1.1436.4355,1.7627.3164.6191.8018,1.1934,1.459,1.7236l7.3896,6.1777c.8848.6816,1.5098,1.4717,1.876,2.3682.3662.8975.5371,1.8252.5117,2.7852-.0508,2.2236-.7959,4.0049-2.2354,5.3438-1.4404,1.3389-3.3857,2.0078-5.8359,2.0078-.7842,0-1.624-.0752-2.5205-.2275-.8975-.1514-1.7373-.3848-2.5195-.7002-.7842-.3164-1.416-.7266-1.8955-1.2324-.126-.4541-.1836-1.0166-.1699-1.6855.0117-.6699.0879-1.3584.2275-2.0654.1377-.707.3213-1.3389.5488-1.8955h.3408c-.126,1.2891.0576,2.4385.5498,3.4492.4932,1.0107,1.2129,1.7871,2.1602,2.3301.9473.5439,2.04.79,3.2783.7393,1.4902-.0508,2.7217-.5117,3.6943-1.3828.9727-.8721,1.459-2.0146,1.459-3.4297,0-.7324-.1641-1.4023-.4922-2.0088-.3291-.6064-.834-1.1494-1.5166-1.6299l-7.0479-5.9873c-.9609-.707-1.6426-1.54-2.0469-2.501-.4043-.96-.5811-1.9199-.5303-2.8799.0498-1.1367.3535-2.2041.9092-3.2021.5557-.998,1.3584-1.7939,2.4062-2.3877,1.0488-.5928,2.3184-.8906,3.8086-.8906ZM596.3345,480.6252v.7959h-3.4102v-.7959h3.4102Z" style="fill:#ba944b;"/><rect x="634.1187" y="494.2961" width="73.5234" height="1.5" style="fill:#ba944b;"/><rect x="123.8735" y="494.2961" width="73.5234" height="1.5" style="fill:#ba944b;"/><path d="M201.7805,301.5512c12.2788,7.8645,33.1413,5.0297,46.4244,3.4342,18.7928-2.2572,36.7494-8.3111,55.5767-10.6127,55.5256-6.7878,104.5441,12.7242,158.2662,22.0475,38.713,6.7185,79.5949,9.5617,118.2301.8672,10.1071-2.2745,20.0406-5.3929,29.5064-9.6215,0,0-31.0016,20.5554-104.7989,23.5882-66.1754,2.7195-126.4298-30.3429-192.464-28.1261-19.8533.6665-39.2249,4.9838-59.0453,6.0483-16.4873.8855-37.1789,1.6727-51.6956-7.6251Z" style="fill:#ba944b;"/><path d="M245.2638,294.347l37.8689-8.2049S309.6408,12.2247,397.37,3.3878c16.6692-1.6791,33.3027,13.0865,42.3201,25.2961,39.2666,53.1675,55.1981,121.9363,66.5538,186.0109,5.7932,32.6881,9.9469,65.659,12.9296,98.7176,0,0,39.3817-2.4331,39.3817-2.4331-8.3684-87.0207-32.6426-180.2885-78.531-255.4784-8.6-14.0914-18.6724-27.5965-31.3932-38.2462-28.0308-23.4668-66.1074-22.1292-95.1681-1.2495-15.9082,11.4298-27.5957,27.5499-37.5367,44.1939-27.2435,45.613-42.8613,98.0426-53.3266,149.7879l-17.3359,84.3599Z" style="fill:#fff;"/></g></g></svg>