<?xml version="1.0" encoding="UTF-8"?><svg id="Layer_2" xmlns="http://www.w3.org/2000/svg" viewBox="0 0 662.6957 538.2945"><g id="Components"><g id="_7c63886c-952f-43ca-be5c-6437c828c7fe_1"><path d="M0,489.7914c19.9437,12.7738,53.8294,8.1694,75.4043,5.578,30.5239-3.6662,59.6898-13.4993,90.2698-17.2376,90.1868-11.025,169.8046,20.6671,257.0622,35.8104,62.8792,10.9125,129.2812,15.5305,192.034,1.4086,16.4164-3.6943,32.5507-8.7594,47.9254-15.6276,0,0-50.354,33.3869-170.2185,38.3129-107.4846,4.4172-205.3523-49.2841-312.6076-45.6836-32.2465,1.0825-63.7107,8.0949-95.9037,9.8239-26.7792,1.4383-60.3875,2.7169-83.966-12.385Z" style="fill:#ba944b;"/><path d="M70.6272,478.0899l61.5081-13.3268S175.1909,19.8559,317.6841,5.5026c27.0748-2.7272,54.0916,21.2555,68.738,41.0868,63.7784,86.3567,89.6549,198.0537,108.0992,302.1262,9.4095,53.0932,16.1562,106.6459,21.0008,160.341,0,0,63.9653-3.952,63.9653-3.952-13.5922-141.3424-53.0194-292.8316-127.5531-414.958-13.9684-22.8878-30.3285-44.8234-50.9901-62.1209-45.5287-38.1158-107.3742-35.9431-154.5757-2.0294-25.8388,18.5648-44.822,44.7477-60.9686,71.7815-44.2499,74.0864-69.6169,159.2446-86.6152,243.2913l-28.1576,137.0207Z" style="fill:#1b3357;"/></g></g></svg>